<svg width="583" height="363" viewBox="0 0 583 363" fill="none" xmlns="http://www.w3.org/2000/svg">
<path d="M69.7071 0.292893C69.3166 -0.0976311 68.6834 -0.0976311 68.2929 0.292893L61.9289 6.65685C61.5384 7.04738 61.5384 7.68054 61.9289 8.07107C62.3195 8.46159 62.9526 8.46159 63.3431 8.07107L69 2.41421L74.6569 8.07107C75.0474 8.46159 75.6805 8.46159 76.0711 8.07107C76.4616 7.68054 76.4616 7.04738 76.0711 6.65685L69.7071 0.292893ZM68 1L68 316H70L70 1L68 1Z" fill="#737370"/>
<path d="M583 316L69 316" stroke="#737370" stroke-width="2"/>
<path d="M39.6932 25.9091V24.7585C39.6932 23.9631 39.8565 23.2351 40.1832 22.5746C40.517 21.907 41 21.3743 41.6321 20.9766C42.2713 20.5717 43.0455 20.3693 43.9545 20.3693C44.8778 20.3693 45.652 20.5717 46.277 20.9766C46.902 21.3743 47.3743 21.907 47.6939 22.5746C48.0135 23.2351 48.1733 23.9631 48.1733 24.7585V25.9091C48.1733 26.7045 48.0099 27.4361 47.6832 28.1037C47.3636 28.7642 46.8878 29.2969 46.2557 29.7017C45.6307 30.0994 44.8636 30.2983 43.9545 30.2983C43.0313 30.2983 42.2536 30.0994 41.6214 29.7017C40.9893 29.2969 40.5099 28.7642 40.1832 28.1037C39.8565 27.4361 39.6932 26.7045 39.6932 25.9091ZM41.8665 24.7585V25.9091C41.8665 26.5696 42.0227 27.1626 42.3352 27.6882C42.6477 28.2067 43.1875 28.4659 43.9545 28.4659C44.7003 28.4659 45.2259 28.2067 45.5312 27.6882C45.8438 27.1626 46 26.5696 46 25.9091V24.7585C46 24.098 45.8509 23.5085 45.5526 22.9901C45.2543 22.4645 44.7216 22.2017 43.9545 22.2017C43.2088 22.2017 42.6726 22.4645 42.3459 22.9901C42.0263 23.5085 41.8665 24.098 41.8665 24.7585ZM28.8267 13.4233V12.2727C28.8267 11.4773 28.9901 10.7493 29.3168 10.0888C29.6506 9.42116 30.1335 8.88849 30.7656 8.49077C31.4048 8.08594 32.179 7.88352 33.0881 7.88352C34.0114 7.88352 34.7855 8.08594 35.4105 8.49077C36.0355 8.88849 36.5078 9.42116 36.8274 10.0888C37.147 10.7493 37.3068 11.4773 37.3068 12.2727V13.4233C37.3068 14.2187 37.1435 14.9503 36.8168 15.6179C36.4972 16.2784 36.0213 16.8111 35.3892 17.2159C34.7642 17.6136 33.9972 17.8125 33.0881 17.8125C32.1648 17.8125 31.3871 17.6136 30.755 17.2159C30.1229 16.8111 29.6435 16.2784 29.3168 15.6179C28.9901 14.9503 28.8267 14.2187 28.8267 13.4233ZM31 12.2727V13.4233C31 14.0838 31.1562 14.6768 31.4688 15.2024C31.7812 15.7209 32.321 15.9801 33.0881 15.9801C33.8338 15.9801 34.3594 15.7209 34.6648 15.2024C34.9773 14.6768 35.1335 14.0838 35.1335 13.4233V12.2727C35.1335 11.6122 34.9844 11.0227 34.6861 10.5043C34.3878 9.97869 33.8551 9.71591 33.0881 9.71591C32.3423 9.71591 31.8061 9.97869 31.4794 10.5043C31.1598 11.0227 31 11.6122 31 12.2727ZM29.6364 30L44.6364 8.18182H47.0653L32.0653 30H29.6364Z" fill="#737370"/>
<path d="M11.7063 67.1818V89H9.06428V69.9517H8.93643L3.60973 73.4886V70.804L9.06428 67.1818H11.7063ZM25.0977 89.2983C23.4925 89.2983 22.1254 88.8615 20.9961 87.9879C19.8668 87.1072 19.0039 85.8324 18.4073 84.1634C17.8107 82.4872 17.5124 80.4631 17.5124 78.0909C17.5124 75.733 17.8107 73.7195 18.4073 72.0504C19.011 70.3743 19.8775 69.0959 21.0067 68.2152C22.1431 67.3274 23.5067 66.8835 25.0977 66.8835C26.6886 66.8835 28.0487 67.3274 29.1779 68.2152C30.3143 69.0959 31.1808 70.3743 31.7773 72.0504C32.381 73.7195 32.6829 75.733 32.6829 78.0909C32.6829 80.4631 32.3846 82.4872 31.788 84.1634C31.1914 85.8324 30.3285 87.1072 29.1992 87.9879C28.07 88.8615 26.7028 89.2983 25.0977 89.2983ZM25.0977 86.9545C26.6886 86.9545 27.9244 86.1875 28.805 84.6534C29.6857 83.1193 30.1261 80.9318 30.1261 78.0909C30.1261 76.2017 29.9237 74.593 29.5188 73.2649C29.1211 71.9368 28.5458 70.9247 27.793 70.2287C27.0472 69.5327 26.1488 69.1847 25.0977 69.1847C23.521 69.1847 22.2887 69.9624 21.4009 71.5178C20.5131 73.0661 20.0692 75.2571 20.0692 78.0909C20.0692 79.9801 20.2681 81.5852 20.6658 82.9062C21.0636 84.2273 21.6353 85.2322 22.381 85.9212C23.1339 86.6101 24.0394 86.9545 25.0977 86.9545ZM43.8477 89.2983C42.2425 89.2983 40.8754 88.8615 39.7461 87.9879C38.6168 87.1072 37.7539 85.8324 37.1573 84.1634C36.5607 82.4872 36.2624 80.4631 36.2624 78.0909C36.2624 75.733 36.5607 73.7195 37.1573 72.0504C37.761 70.3743 38.6275 69.0959 39.7567 68.2152C40.8931 67.3274 42.2567 66.8835 43.8477 66.8835C45.4386 66.8835 46.7987 67.3274 47.9279 68.2152C49.0643 69.0959 49.9308 70.3743 50.5273 72.0504C51.131 73.7195 51.4329 75.733 51.4329 78.0909C51.4329 80.4631 51.1346 82.4872 50.538 84.1634C49.9414 85.8324 49.0785 87.1072 47.9492 87.9879C46.82 88.8615 45.4528 89.2983 43.8477 89.2983ZM43.8477 86.9545C45.4386 86.9545 46.6744 86.1875 47.555 84.6534C48.4357 83.1193 48.8761 80.9318 48.8761 78.0909C48.8761 76.2017 48.6737 74.593 48.2688 73.2649C47.8711 71.9368 47.2958 70.9247 46.543 70.2287C45.7972 69.5327 44.8988 69.1847 43.8477 69.1847C42.271 69.1847 41.0387 69.9624 40.1509 71.5178C39.2631 73.0661 38.8192 75.2571 38.8192 78.0909C38.8192 79.9801 39.0181 81.5852 39.4158 82.9062C39.8136 84.2273 40.3853 85.2322 41.131 85.9212C41.8839 86.6101 42.7894 86.9545 43.8477 86.9545Z" fill="#737370"/>
<path d="M12.7304 159L22.4889 139.696V139.526H11.2389V137.182H25.2162V139.653L15.5003 159H12.7304ZM35.835 159.298C34.2298 159.298 32.8627 158.862 31.7334 157.988C30.6041 157.107 29.7412 155.832 29.1446 154.163C28.548 152.487 28.2497 150.463 28.2497 148.091C28.2497 145.733 28.548 143.719 29.1446 142.05C29.7483 140.374 30.6148 139.096 31.7441 138.215C32.8804 137.327 34.2441 136.884 35.835 136.884C37.4259 136.884 38.786 137.327 39.9152 138.215C41.0516 139.096 41.9181 140.374 42.5146 142.05C43.1183 143.719 43.4202 145.733 43.4202 148.091C43.4202 150.463 43.1219 152.487 42.5253 154.163C41.9287 155.832 41.0658 157.107 39.9365 157.988C38.8073 158.862 37.4401 159.298 35.835 159.298ZM35.835 156.955C37.4259 156.955 38.6617 156.187 39.5423 154.653C40.423 153.119 40.8634 150.932 40.8634 148.091C40.8634 146.202 40.661 144.593 40.2561 143.265C39.8584 141.937 39.2831 140.925 38.5303 140.229C37.7845 139.533 36.8861 139.185 35.835 139.185C34.2583 139.185 33.026 139.962 32.1382 141.518C31.2504 143.066 30.8066 145.257 30.8066 148.091C30.8066 149.98 31.0054 151.585 31.4031 152.906C31.8009 154.227 32.3726 155.232 33.1183 155.921C33.8712 156.61 34.7767 156.955 35.835 156.955Z" fill="#737370"/>
<path d="M163.555 356H160.786L168.797 334.182H171.524L179.536 356H176.766L170.246 337.634H170.075L163.555 356ZM164.578 347.477H175.743V349.821H164.578V347.477ZM182.934 334.182H186.087L193.502 352.293H193.758L201.173 334.182H204.326V356H201.854V339.423H201.641L194.823 356H192.437L185.619 339.423H185.406V356H182.934V334.182Z" fill="#FA8F00"/>
<path d="M360.982 356V334.182H368.354C370.059 334.182 371.458 334.473 372.551 335.055C373.645 335.631 374.455 336.423 374.98 337.431C375.506 338.44 375.769 339.587 375.769 340.872C375.769 342.158 375.506 343.298 374.98 344.292C374.455 345.286 373.649 346.067 372.562 346.636C371.475 347.197 370.087 347.477 368.397 347.477H362.431V345.091H368.311C369.476 345.091 370.414 344.92 371.124 344.58C371.841 344.239 372.36 343.756 372.679 343.131C373.006 342.499 373.169 341.746 373.169 340.872C373.169 339.999 373.006 339.235 372.679 338.582C372.353 337.928 371.831 337.424 371.113 337.069C370.396 336.707 369.448 336.526 368.269 336.526H363.624V356H360.982ZM371.252 346.199L376.621 356H373.553L368.269 346.199H371.252ZM392.103 339.636C391.975 338.557 391.457 337.719 390.548 337.122C389.639 336.526 388.524 336.227 387.203 336.227C386.237 336.227 385.392 336.384 384.667 336.696C383.95 337.009 383.389 337.438 382.984 337.985C382.586 338.532 382.387 339.153 382.387 339.849C382.387 340.432 382.526 340.933 382.803 341.352C383.087 341.763 383.449 342.108 383.889 342.385C384.33 342.655 384.791 342.879 385.274 343.056C385.757 343.227 386.201 343.365 386.606 343.472L388.822 344.068C389.39 344.217 390.022 344.423 390.718 344.686C391.421 344.949 392.093 345.308 392.732 345.762C393.378 346.21 393.911 346.785 394.33 347.488C394.749 348.191 394.958 349.054 394.958 350.077C394.958 351.256 394.649 352.321 394.031 353.273C393.421 354.224 392.526 354.981 391.347 355.542C390.175 356.103 388.751 356.384 387.075 356.384C385.512 356.384 384.159 356.131 383.016 355.627C381.879 355.123 380.985 354.42 380.331 353.518C379.685 352.616 379.319 351.568 379.234 350.375H381.961C382.032 351.199 382.309 351.881 382.792 352.42C383.282 352.953 383.9 353.351 384.646 353.614C385.399 353.869 386.208 353.997 387.075 353.997C388.083 353.997 388.989 353.834 389.791 353.507C390.594 353.173 391.23 352.712 391.698 352.122C392.167 351.526 392.401 350.83 392.401 350.034C392.401 349.31 392.199 348.72 391.794 348.266C391.389 347.811 390.857 347.442 390.196 347.158C389.536 346.874 388.822 346.625 388.055 346.412L385.37 345.645C383.666 345.155 382.316 344.455 381.322 343.546C380.328 342.637 379.83 341.447 379.83 339.977C379.83 338.756 380.161 337.69 380.821 336.781C381.489 335.865 382.384 335.155 383.506 334.651C384.635 334.139 385.896 333.884 387.288 333.884C388.694 333.884 389.944 334.136 391.038 334.64C392.132 335.137 392.998 335.819 393.637 336.685C394.284 337.552 394.624 338.536 394.66 339.636H392.103Z" fill="#006CA9"/>
<line y1="95.5" x2="573" y2="95.5" stroke="#737370" stroke-dasharray="2 2"/>
<line y1="165.5" x2="573" y2="165.5" stroke="#737370" stroke-dasharray="2 2"/>
<rect x="131" y="166" width="48" height="150" fill="#D9D9D9"/>
<rect x="326" y="147" width="48" height="169" fill="#D9D9D9"/>
<rect x="187" y="96" width="48" height="220" fill="#82D1F5"/>
<rect x="382" y="96" width="48" height="220" fill="#82D1F5"/>
<path d="M137.997 254L144.503 241.131V241.017H137.003V239.455H146.321V241.102L139.844 254H137.997ZM147.719 254.114C147.368 254.114 147.068 253.988 146.817 253.737C146.566 253.486 146.44 253.186 146.44 252.835C146.44 252.485 146.566 252.184 146.817 251.933C147.068 251.682 147.368 251.557 147.719 251.557C148.069 251.557 148.37 251.682 148.621 251.933C148.872 252.184 148.997 252.485 148.997 252.835C148.997 253.067 148.938 253.28 148.819 253.474C148.706 253.669 148.552 253.825 148.358 253.943C148.168 254.057 147.955 254.114 147.719 254.114ZM156.213 254.199C155.143 254.199 154.231 253.908 153.479 253.325C152.726 252.738 152.15 251.888 151.753 250.776C151.355 249.658 151.156 248.309 151.156 246.727C151.156 245.155 151.355 243.813 151.753 242.7C152.155 241.583 152.733 240.731 153.486 240.143C154.243 239.552 155.152 239.256 156.213 239.256C157.273 239.256 158.18 239.552 158.933 240.143C159.691 240.731 160.268 241.583 160.666 242.7C161.068 243.813 161.27 245.155 161.27 246.727C161.27 248.309 161.071 249.658 160.673 250.776C160.275 251.888 159.7 252.738 158.947 253.325C158.194 253.908 157.283 254.199 156.213 254.199ZM156.213 252.636C157.273 252.636 158.097 252.125 158.684 251.102C159.272 250.08 159.565 248.621 159.565 246.727C159.565 245.468 159.43 244.395 159.16 243.51C158.895 242.625 158.512 241.95 158.01 241.486C157.513 241.022 156.914 240.79 156.213 240.79C155.162 240.79 154.34 241.308 153.748 242.345C153.157 243.377 152.861 244.838 152.861 246.727C152.861 247.987 152.993 249.057 153.258 249.938C153.523 250.818 153.905 251.488 154.402 251.947C154.904 252.407 155.507 252.636 156.213 252.636ZM168.713 254.199C167.643 254.199 166.731 253.908 165.979 253.325C165.226 252.738 164.65 251.888 164.253 250.776C163.855 249.658 163.656 248.309 163.656 246.727C163.656 245.155 163.855 243.813 164.253 242.7C164.655 241.583 165.233 240.731 165.986 240.143C166.743 239.552 167.652 239.256 168.713 239.256C169.773 239.256 170.68 239.552 171.433 240.143C172.191 240.731 172.768 241.583 173.166 242.7C173.568 243.813 173.77 245.155 173.77 246.727C173.77 248.309 173.571 249.658 173.173 250.776C172.775 251.888 172.2 252.738 171.447 253.325C170.694 253.908 169.783 254.199 168.713 254.199ZM168.713 252.636C169.773 252.636 170.597 252.125 171.184 251.102C171.772 250.08 172.065 248.621 172.065 246.727C172.065 245.468 171.93 244.395 171.66 243.51C171.395 242.625 171.012 241.95 170.51 241.486C170.013 241.022 169.414 240.79 168.713 240.79C167.662 240.79 166.84 241.308 166.248 242.345C165.657 243.377 165.361 244.838 165.361 246.727C165.361 247.987 165.493 249.057 165.758 249.938C166.023 250.818 166.405 251.488 166.902 251.947C167.404 252.407 168.007 252.636 168.713 252.636Z" fill="#006CA9"/>
<path d="M334.65 239.256C335.247 239.26 335.843 239.374 336.44 239.597C337.036 239.819 337.581 240.188 338.073 240.705C338.566 241.216 338.961 241.914 339.259 242.8C339.558 243.685 339.707 244.795 339.707 246.131C339.707 247.423 339.584 248.571 339.338 249.575C339.096 250.574 338.746 251.417 338.286 252.104C337.832 252.79 337.278 253.311 336.624 253.666C335.976 254.021 335.242 254.199 334.423 254.199C333.608 254.199 332.882 254.038 332.242 253.716C331.608 253.389 331.087 252.937 330.68 252.359C330.277 251.777 330.019 251.102 329.906 250.335H331.639C331.795 251.003 332.105 251.554 332.569 251.99C333.038 252.421 333.656 252.636 334.423 252.636C335.545 252.636 336.43 252.146 337.079 251.166C337.732 250.186 338.059 248.801 338.059 247.011H337.945C337.68 247.409 337.365 247.752 337.001 248.041C336.636 248.33 336.231 248.553 335.786 248.709C335.341 248.865 334.868 248.943 334.366 248.943C333.533 248.943 332.768 248.737 332.072 248.325C331.381 247.909 330.827 247.338 330.41 246.614C329.998 245.884 329.792 245.051 329.792 244.114C329.792 243.223 329.991 242.409 330.389 241.67C330.791 240.927 331.355 240.335 332.079 239.895C332.808 239.455 333.665 239.241 334.65 239.256ZM334.65 240.818C334.053 240.818 333.516 240.967 333.038 241.266C332.564 241.559 332.188 241.957 331.909 242.459C331.634 242.956 331.497 243.508 331.497 244.114C331.497 244.72 331.629 245.271 331.894 245.768C332.164 246.261 332.531 246.654 332.995 246.947C333.464 247.236 333.997 247.381 334.593 247.381C335.043 247.381 335.462 247.293 335.85 247.118C336.239 246.938 336.577 246.694 336.866 246.386C337.16 246.074 337.389 245.721 337.555 245.328C337.721 244.93 337.803 244.516 337.803 244.085C337.803 243.517 337.666 242.984 337.392 242.487C337.122 241.99 336.748 241.588 336.269 241.28C335.796 240.972 335.256 240.818 334.65 240.818ZM343.242 254.114C342.892 254.114 342.591 253.988 342.34 253.737C342.089 253.486 341.964 253.186 341.964 252.835C341.964 252.485 342.089 252.184 342.34 251.933C342.591 251.682 342.892 251.557 343.242 251.557C343.592 251.557 343.893 251.682 344.144 251.933C344.395 252.184 344.52 252.485 344.52 252.835C344.52 253.067 344.461 253.28 344.343 253.474C344.229 253.669 344.075 253.825 343.881 253.943C343.692 254.057 343.479 254.114 343.242 254.114ZM351.736 254.199C350.666 254.199 349.755 253.908 349.002 253.325C348.249 252.738 347.674 251.888 347.276 250.776C346.878 249.658 346.68 248.309 346.68 246.727C346.68 245.155 346.878 243.813 347.276 242.7C347.679 241.583 348.256 240.731 349.009 240.143C349.767 239.552 350.676 239.256 351.736 239.256C352.797 239.256 353.704 239.552 354.456 240.143C355.214 240.731 355.792 241.583 356.189 242.7C356.592 243.813 356.793 245.155 356.793 246.727C356.793 248.309 356.594 249.658 356.197 250.776C355.799 251.888 355.224 252.738 354.471 253.325C353.718 253.908 352.806 254.199 351.736 254.199ZM351.736 252.636C352.797 252.636 353.621 252.125 354.208 251.102C354.795 250.08 355.089 248.621 355.089 246.727C355.089 245.468 354.954 244.395 354.684 243.51C354.419 242.625 354.035 241.95 353.533 241.486C353.036 241.022 352.437 240.79 351.736 240.79C350.685 240.79 349.864 241.308 349.272 242.345C348.68 243.377 348.384 244.838 348.384 246.727C348.384 247.987 348.517 249.057 348.782 249.938C349.047 250.818 349.428 251.488 349.925 251.947C350.427 252.407 351.031 252.636 351.736 252.636ZM364.236 254.199C363.166 254.199 362.255 253.908 361.502 253.325C360.749 252.738 360.174 251.888 359.776 250.776C359.378 249.658 359.18 248.309 359.18 246.727C359.18 245.155 359.378 243.813 359.776 242.7C360.179 241.583 360.756 240.731 361.509 240.143C362.267 239.552 363.176 239.256 364.236 239.256C365.297 239.256 366.204 239.552 366.956 240.143C367.714 240.731 368.292 241.583 368.689 242.7C369.092 243.813 369.293 245.155 369.293 246.727C369.293 248.309 369.094 249.658 368.697 250.776C368.299 251.888 367.724 252.738 366.971 253.325C366.218 253.908 365.306 254.199 364.236 254.199ZM364.236 252.636C365.297 252.636 366.121 252.125 366.708 251.102C367.295 250.08 367.589 248.621 367.589 246.727C367.589 245.468 367.454 244.395 367.184 243.51C366.919 242.625 366.535 241.95 366.033 241.486C365.536 241.022 364.937 240.79 364.236 240.79C363.185 240.79 362.364 241.308 361.772 242.345C361.18 243.377 360.884 244.838 360.884 246.727C360.884 247.987 361.017 249.057 361.282 249.938C361.547 250.818 361.928 251.488 362.425 251.947C362.927 252.407 363.531 252.636 364.236 252.636Z" fill="#006CA9"/>
<path d="M192.475 239.455V254H190.713V241.301H190.628L187.077 243.659V241.869L190.713 239.455H192.475ZM201.402 254.199C200.332 254.199 199.421 253.908 198.668 253.325C197.915 252.738 197.34 251.888 196.942 250.776C196.544 249.658 196.346 248.309 196.346 246.727C196.346 245.155 196.544 243.813 196.942 242.7C197.345 241.583 197.922 240.731 198.675 240.143C199.433 239.552 200.342 239.256 201.402 239.256C202.463 239.256 203.37 239.552 204.123 240.143C204.88 240.731 205.458 241.583 205.855 242.7C206.258 243.813 206.459 245.155 206.459 246.727C206.459 248.309 206.26 249.658 205.863 250.776C205.465 251.888 204.89 252.738 204.137 253.325C203.384 253.908 202.472 254.199 201.402 254.199ZM201.402 252.636C202.463 252.636 203.287 252.125 203.874 251.102C204.461 250.08 204.755 248.621 204.755 246.727C204.755 245.468 204.62 244.395 204.35 243.51C204.085 242.625 203.701 241.95 203.199 241.486C202.702 241.022 202.103 240.79 201.402 240.79C200.351 240.79 199.53 241.308 198.938 242.345C198.346 243.377 198.05 244.838 198.05 246.727C198.05 247.987 198.183 249.057 198.448 249.938C198.713 250.818 199.094 251.488 199.591 251.947C200.093 252.407 200.697 252.636 201.402 252.636ZM209.9 254.114C209.55 254.114 209.249 253.988 208.998 253.737C208.747 253.486 208.622 253.186 208.622 252.835C208.622 252.485 208.747 252.184 208.998 251.933C209.249 251.682 209.55 251.557 209.9 251.557C210.251 251.557 210.551 251.682 210.802 251.933C211.053 252.184 211.179 252.485 211.179 252.835C211.179 253.067 211.119 253.28 211.001 253.474C210.887 253.669 210.734 253.825 210.539 253.943C210.35 254.057 210.137 254.114 209.9 254.114ZM218.395 254.199C217.324 254.199 216.413 253.908 215.66 253.325C214.907 252.738 214.332 251.888 213.934 250.776C213.537 249.658 213.338 248.309 213.338 246.727C213.338 245.155 213.537 243.813 213.934 242.7C214.337 241.583 214.914 240.731 215.667 240.143C216.425 239.552 217.334 239.256 218.395 239.256C219.455 239.256 220.362 239.552 221.115 240.143C221.872 240.731 222.45 241.583 222.848 242.7C223.25 243.813 223.451 245.155 223.451 246.727C223.451 248.309 223.252 249.658 222.855 250.776C222.457 251.888 221.882 252.738 221.129 253.325C220.376 253.908 219.465 254.199 218.395 254.199ZM218.395 252.636C219.455 252.636 220.279 252.125 220.866 251.102C221.453 250.08 221.747 248.621 221.747 246.727C221.747 245.468 221.612 244.395 221.342 243.51C221.077 242.625 220.693 241.95 220.191 241.486C219.694 241.022 219.095 240.79 218.395 240.79C217.343 240.79 216.522 241.308 215.93 242.345C215.338 243.377 215.042 244.838 215.042 246.727C215.042 247.987 215.175 249.057 215.44 249.938C215.705 250.818 216.086 251.488 216.583 251.947C217.085 252.407 217.689 252.636 218.395 252.636ZM230.895 254.199C229.824 254.199 228.913 253.908 228.16 253.325C227.407 252.738 226.832 251.888 226.434 250.776C226.037 249.658 225.838 248.309 225.838 246.727C225.838 245.155 226.037 243.813 226.434 242.7C226.837 241.583 227.414 240.731 228.167 240.143C228.925 239.552 229.834 239.256 230.895 239.256C231.955 239.256 232.862 239.552 233.615 240.143C234.372 240.731 234.95 241.583 235.348 242.7C235.75 243.813 235.951 245.155 235.951 246.727C235.951 248.309 235.752 249.658 235.355 250.776C234.957 251.888 234.382 252.738 233.629 253.325C232.876 253.908 231.965 254.199 230.895 254.199ZM230.895 252.636C231.955 252.636 232.779 252.125 233.366 251.102C233.953 250.08 234.247 248.621 234.247 246.727C234.247 245.468 234.112 244.395 233.842 243.51C233.577 242.625 233.193 241.95 232.691 241.486C232.194 241.022 231.595 240.79 230.895 240.79C229.843 240.79 229.022 241.308 228.43 242.345C227.838 243.377 227.542 244.838 227.542 246.727C227.542 247.987 227.675 249.057 227.94 249.938C228.205 250.818 228.586 251.488 229.083 251.947C229.585 252.407 230.189 252.636 230.895 252.636Z" fill="#006CA9"/>
<path d="M386.416 239.455V254H384.655V241.301H384.57L381.018 243.659V241.869L384.655 239.455H386.416ZM390.599 254V252.722L395.401 247.466C395.964 246.85 396.428 246.315 396.793 245.861C397.157 245.402 397.427 244.971 397.602 244.568C397.782 244.161 397.872 243.735 397.872 243.29C397.872 242.778 397.749 242.336 397.503 241.962C397.261 241.588 396.93 241.299 396.509 241.095C396.087 240.892 395.614 240.79 395.088 240.79C394.529 240.79 394.042 240.906 393.625 241.138C393.213 241.365 392.893 241.685 392.666 242.097C392.444 242.509 392.332 242.991 392.332 243.545H390.656C390.656 242.693 390.853 241.945 391.246 241.301C391.639 240.657 392.174 240.155 392.851 239.795C393.533 239.436 394.297 239.256 395.145 239.256C395.997 239.256 396.752 239.436 397.411 239.795C398.069 240.155 398.585 240.641 398.959 241.251C399.333 241.862 399.52 242.542 399.52 243.29C399.52 243.825 399.423 244.348 399.229 244.859C399.039 245.366 398.708 245.932 398.234 246.557C397.766 247.177 397.115 247.935 396.281 248.83L393.014 252.324V252.438H399.776V254H390.599ZM403.959 254.114C403.608 254.114 403.308 253.988 403.057 253.737C402.806 253.486 402.68 253.186 402.68 252.835C402.68 252.485 402.806 252.184 403.057 251.933C403.308 251.682 403.608 251.557 403.959 251.557C404.309 251.557 404.61 251.682 404.861 251.933C405.112 252.184 405.237 252.485 405.237 252.835C405.237 253.067 405.178 253.28 405.06 253.474C404.946 253.669 404.792 253.825 404.598 253.943C404.409 254.057 404.196 254.114 403.959 254.114ZM412.453 254.199C411.383 254.199 410.472 253.908 409.719 253.325C408.966 252.738 408.391 251.888 407.993 250.776C407.595 249.658 407.396 248.309 407.396 246.727C407.396 245.155 407.595 243.813 407.993 242.7C408.395 241.583 408.973 240.731 409.726 240.143C410.483 239.552 411.393 239.256 412.453 239.256C413.514 239.256 414.42 239.552 415.173 240.143C415.931 240.731 416.509 241.583 416.906 242.7C417.309 243.813 417.51 245.155 417.51 246.727C417.51 248.309 417.311 249.658 416.913 250.776C416.516 251.888 415.94 252.738 415.188 253.325C414.435 253.908 413.523 254.199 412.453 254.199ZM412.453 252.636C413.514 252.636 414.338 252.125 414.925 251.102C415.512 250.08 415.805 248.621 415.805 246.727C415.805 245.468 415.67 244.395 415.401 243.51C415.135 242.625 414.752 241.95 414.25 241.486C413.753 241.022 413.154 240.79 412.453 240.79C411.402 240.79 410.58 241.308 409.989 242.345C409.397 243.377 409.101 244.838 409.101 246.727C409.101 247.987 409.233 249.057 409.499 249.938C409.764 250.818 410.145 251.488 410.642 251.947C411.144 252.407 411.748 252.636 412.453 252.636ZM424.953 254.199C423.883 254.199 422.972 253.908 422.219 253.325C421.466 252.738 420.891 251.888 420.493 250.776C420.095 249.658 419.896 248.309 419.896 246.727C419.896 245.155 420.095 243.813 420.493 242.7C420.895 241.583 421.473 240.731 422.226 240.143C422.983 239.552 423.893 239.256 424.953 239.256C426.014 239.256 426.92 239.552 427.673 240.143C428.431 240.731 429.009 241.583 429.406 242.7C429.809 243.813 430.01 245.155 430.01 246.727C430.01 248.309 429.811 249.658 429.413 250.776C429.016 251.888 428.44 252.738 427.688 253.325C426.935 253.908 426.023 254.199 424.953 254.199ZM424.953 252.636C426.014 252.636 426.838 252.125 427.425 251.102C428.012 250.08 428.305 248.621 428.305 246.727C428.305 245.468 428.17 244.395 427.901 243.51C427.635 242.625 427.252 241.95 426.75 241.486C426.253 241.022 425.654 240.79 424.953 240.79C423.902 240.79 423.08 241.308 422.489 242.345C421.897 243.377 421.601 244.838 421.601 246.727C421.601 247.987 421.733 249.057 421.999 249.938C422.264 250.818 422.645 251.488 423.142 251.947C423.644 252.407 424.248 252.636 424.953 252.636Z" fill="#006CA9"/>
</svg>
